<svg xmlns="http://www.w3.org/2000/svg" width="30" height="44"><rect id="backgroundrect" width="100%" height="100%" x="0" y="0" fill="#66bbff" stroke="none" class="" style="" fill-opacity="1" opacity="1"/><g class="currentLayer" style=""><title>Layer 1</title><path d="M20.598982349038124,15 h-1.81 c-0.28,-1.86 -2.04,-3 -3.6900000000000004,-3 s-3.42,1.1400000000000001 -3.6900000000000004,3 H9.598982349038124 c-0.8300000000000006,0 -1.5,0.670000000000004 -1.5,1.5 v11 c0,0.8300000000000006 0.670000000000004,1.5 1.5,1.5 h11 c0.8300000000000006,0 1.5,-0.670000000000004 1.5,-1.5 v-11 c0,-0.8300000000000006 -0.670000000000004,-1.5 -1.5,-1.5 zM15.098982349038124,13 c1.18,0 2.43,0.7500000000000031 2.7,2 H12.398982349038123 c0.27,-1.25 1.52,-2 2.7,-2 zm6,14.5 c0,0.28 -0.22000000000000083,0.5 -0.5,0.5 h-11 c-0.28,0 -0.5,-0.22000000000000083 -0.5,-0.5 v-11 c0,-0.28 0.22000000000000083,-0.5 0.5,-0.5 h11 c0.28,0 0.5,0.22000000000000083 0.5,0.5 v11 z" fill="#000000" id="svg_1" class="selected" fill-opacity="1"/></g></svg>