<?xml version="1.0" encoding="UTF-8"?>
<svg xmlns="http://www.w3.org/2000/svg" xmlns:xlink="http://www.w3.org/1999/xlink" width="21pt" height="21pt" viewBox="0 0 21 21" version="1.1">
<g id="surface1">
<path style=" stroke:none;fill-rule:nonzero;fill:rgb(40%,73.333333%,100%);fill-opacity:1;" d="M 18.117188 3.523438 C 18.003906 3.351562 17.808594 3.28125 17.613281 3.308594 C 17.601562 3.308594 17.59375 3.304688 17.585938 3.304688 L 9.648438 2.136719 C 9.5625 2.125 9.472656 2.132812 9.390625 2.164062 L 3.027344 4.496094 C 3.023438 4.5 3.023438 4.5 3.023438 4.5 C 3.019531 4.5 3.007812 4.503906 3.003906 4.507812 C 2.964844 4.523438 2.9375 4.542969 2.90625 4.5625 C 2.894531 4.570312 2.886719 4.578125 2.882812 4.585938 C 2.847656 4.609375 2.816406 4.640625 2.789062 4.671875 C 2.789062 4.675781 2.785156 4.675781 2.785156 4.675781 L 0.101562 8.351562 C 0 8.492188 -0.0273438 8.675781 0.03125 8.84375 C 0.0898438 9.007812 0.222656 9.128906 0.394531 9.171875 L 2.722656 9.773438 L 2.722656 15.535156 C 2.722656 15.765625 2.878906 15.972656 3.097656 16.039062 L 11.632812 18.644531 C 11.632812 18.652344 11.636719 18.644531 11.636719 18.652344 C 11.683594 18.664062 11.730469 18.667969 11.78125 18.671875 C 11.832031 18.671875 11.878906 18.664062 11.933594 18.644531 C 11.945312 18.644531 11.960938 18.636719 11.980469 18.632812 C 12 18.621094 12.015625 18.613281 12.042969 18.605469 L 18.160156 15.207031 C 18.332031 15.113281 18.433594 14.941406 18.433594 14.75 L 18.433594 8.984375 L 20.503906 7.992188 C 20.640625 7.925781 20.746094 7.800781 20.785156 7.652344 C 20.824219 7.503906 20.796875 7.34375 20.710938 7.214844 Z M 9.625 3.199219 L 15.820312 4.113281 L 11.714844 6.023438 L 5.207031 4.824219 Z M 3.441406 5.566406 L 10.898438 6.941406 L 8.710938 10.234375 L 1.410156 8.351562 Z M 3.78125 15.144531 L 3.78125 10.046875 L 8.808594 11.347656 C 8.847656 11.359375 8.898438 11.359375 8.9375 11.359375 C 9.113281 11.359375 9.28125 11.277344 9.382812 11.125 L 11.253906 8.3125 L 11.253906 17.433594 Z M 17.378906 14.4375 L 12.316406 17.25 L 12.316406 8.925781 L 13.238281 10.894531 C 13.300781 11.023438 13.402344 11.117188 13.539062 11.164062 C 13.589844 11.1875 13.65625 11.195312 13.710938 11.195312 C 13.792969 11.195312 13.867188 11.179688 13.941406 11.144531 L 17.378906 9.492188 Z M 13.960938 9.964844 L 12.488281 6.820312 L 17.511719 4.488281 L 19.488281 7.3125 Z M 13.960938 9.964844 "/>
</g>
</svg>
