<?xml version="1.0" encoding="UTF-8"?>
<svg xmlns="http://www.w3.org/2000/svg" xmlns:xlink="http://www.w3.org/1999/xlink" width="20pt" height="20pt" viewBox="0 0 20 20" version="1.1">
<g id="surface1">
<path style=" stroke:none;fill-rule:nonzero;fill:rgb(40%,73.333333%,100%);fill-opacity:1;" d="M 10.28125 6.8125 L 9.453125 6.8125 C 9.09375 6.8125 8.792969 6.515625 8.792969 6.152344 C 8.792969 5.789062 9.09375 5.492188 9.453125 5.492188 L 11.105469 5.492188 C 11.425781 5.492188 11.683594 5.230469 11.683594 4.914062 C 11.683594 4.59375 11.425781 4.335938 11.105469 4.335938 L 10.445312 4.335938 L 10.445312 3.675781 C 10.445312 3.355469 10.1875 3.097656 9.867188 3.097656 C 9.550781 3.097656 9.289062 3.355469 9.289062 3.675781 L 9.289062 4.34375 C 8.363281 4.429688 7.636719 5.207031 7.636719 6.152344 C 7.636719 7.15625 8.453125 7.96875 9.453125 7.96875 L 10.28125 7.96875 C 10.644531 7.96875 10.941406 8.265625 10.941406 8.628906 C 10.941406 8.996094 10.644531 9.289062 10.28125 9.289062 L 8.628906 9.289062 C 8.3125 9.289062 8.050781 9.550781 8.050781 9.867188 C 8.050781 10.1875 8.3125 10.445312 8.628906 10.445312 L 9.289062 10.445312 L 9.289062 11.105469 C 9.289062 11.425781 9.550781 11.683594 9.867188 11.683594 C 10.1875 11.683594 10.445312 11.425781 10.445312 11.105469 L 10.445312 10.4375 C 11.371094 10.355469 12.097656 9.574219 12.097656 8.628906 C 12.097656 7.628906 11.285156 6.8125 10.28125 6.8125 Z M 10.28125 6.8125 "/>
<path style=" stroke:none;fill-rule:nonzero;fill:rgb(40%,73.333333%,100%);fill-opacity:1;" d="M 12.964844 13.625 L 6.773438 13.625 C 6.453125 13.625 6.195312 13.886719 6.195312 14.203125 C 6.195312 14.523438 6.453125 14.78125 6.773438 14.78125 L 12.964844 14.78125 C 13.285156 14.78125 13.542969 14.523438 13.542969 14.203125 C 13.542969 13.886719 13.285156 13.625 12.964844 13.625 Z M 12.964844 13.625 "/>
<path style=" stroke:none;fill-rule:nonzero;fill:rgb(40%,73.333333%,100%);fill-opacity:1;" d="M 16.679688 0 L 3.054688 0 C 2.738281 0 2.476562 0.257812 2.476562 0.578125 L 2.476562 17.453125 C 2.476562 17.609375 2.539062 17.753906 2.648438 17.863281 L 4.351562 19.566406 C 4.578125 19.792969 4.941406 19.792969 5.167969 19.566406 L 6.464844 18.273438 L 7.757812 19.566406 C 7.863281 19.675781 8.011719 19.738281 8.164062 19.738281 C 8.320312 19.738281 8.464844 19.675781 8.574219 19.566406 L 9.867188 18.273438 L 11.164062 19.566406 C 11.273438 19.675781 11.417969 19.738281 11.574219 19.738281 C 11.722656 19.738281 11.871094 19.675781 11.980469 19.566406 L 13.273438 18.273438 L 14.570312 19.566406 C 14.683594 19.679688 14.832031 19.738281 14.976562 19.738281 C 15.125 19.738281 15.273438 19.679688 15.386719 19.566406 L 17.089844 17.863281 C 17.199219 17.753906 17.257812 17.609375 17.257812 17.453125 L 17.257812 0.578125 C 17.257812 0.257812 17 0 16.679688 0 Z M 14.976562 18.339844 L 13.683594 17.046875 C 13.574219 16.9375 13.425781 16.875 13.273438 16.875 C 13.121094 16.875 12.976562 16.9375 12.863281 17.046875 L 11.574219 18.339844 L 10.277344 17.046875 C 10.050781 16.820312 9.6875 16.820312 9.460938 17.046875 L 8.164062 18.339844 L 6.871094 17.046875 C 6.761719 16.9375 6.613281 16.875 6.460938 16.875 C 6.308594 16.875 6.164062 16.9375 6.050781 17.046875 L 4.757812 18.339844 L 3.632812 17.214844 L 3.632812 1.15625 L 16.101562 1.15625 L 16.101562 17.214844 Z M 14.976562 18.339844 "/>
</g>
</svg>
