<svg xmlns="http://www.w3.org/2000/svg" width="30" height="44"><rect id="backgroundrect" width="100%" height="100%" x="0" y="0" fill="#000000" stroke="none" class="selected" style="" fill-opacity="1" opacity="0"/><g class="currentLayer" style=""><title>Layer 1</title><path d="M22.499029685258865,28.29 l-4.06,-4.06 a6.113,6.113 0 0 0 1.35,-3.83 c0,-3.39 -2.7600000000000002,-6.15 -6.15,-6.15 c-3.39,0 -6.15,2.7600000000000002 -6.15,6.15 s2.7600000000000002,6.15 6.15,6.15 c1.4300000000000002,0 2.75,-0.5 3.8,-1.33 l4.06,4.06 l1,-0.99 zM13.629029685258866,25.33 a4.93,4.93 0 0 1 -4.92,-4.92 c0,-2.71 2.2,-4.92 4.92,-4.92 s4.92,2.21 4.92,4.92 c0.010000000000000037,2.71 -2.2,4.92 -4.92,4.92 z" fill="#fff" id="svg_1" class=""/></g></svg>